<?xml version="1.0" encoding="utf-8"?>
<!-- Svg Vector Icons : http://www.onlinewebfonts.com/icon -->
<!DOCTYPE svg PUBLIC "-//W3C//DTD SVG 1.1//EN" "http://www.w3.org/Graphics/SVG/1.1/DTD/svg11.dtd">
<svg fill="#ffffff" version="1.1" xmlns="http://www.w3.org/2000/svg" xmlns:xlink="http://www.w3.org/1999/xlink" x="0px" y="0px" viewBox="0 0 1000 1000" enable-background="new 0 0 1000 1000" xml:space="preserve">
<metadata> Svg Vector Icons : http://www.onlinewebfonts.com/icon </metadata>
<g><g><g><path d="M473.8,296.5c9.2,7.2,19.8,14.6,27.6,23.3c0.4-0.4,0.8-0.8,1.2-1.2c7.7-8.2,17.7-15.3,26.5-22.1c36.4-28.4,77.2-51.3,109.7-84.5c28.6-29.2,51-69,47.7-111.2c-0.1-1.6-0.3-3.1-0.5-4.7c-6.5-51-54.7-86.1-104-86.1c-9.3,0-18.6,1.3-27.7,3.9C533,20.1,515,33.5,501.5,50.8c-13.5-17.2-31.5-30.6-52.9-36.9c-9.1-2.6-18.4-3.9-27.7-3.9c-49.2,0-97.4,35.1-104,86.1c-0.2,1.5-0.4,3.1-0.5,4.7c-3.3,42.2,19,81.9,47.7,111.2C396.6,245.2,437.5,268.1,473.8,296.5z"/><path d="M64.6,951.8l114.8,36.8c16.1,5.1,33.2-3.7,38.5-19.8l0,0c5.1-16.1-3.7-33.2-19.8-38.5l-26.2-8.4l47.9-147.1c-10.3-1.8-20.5-4.3-30.5-7.5c-10.9-3.5-21.3-7.7-31.3-12.7l-48,147.4l-26.5-8.5c-16.1-5.1-33.2,3.7-38.5,19.8l0,0C39.7,929.4,48.5,946.6,64.6,951.8z"/><path d="M167.2,725.7c26.3,13.8,61,22.3,90.8,22.3c58.8,0,115.7-27.5,152.3-73.6c33.4-42,43.9-96,52.9-147.6c4.7-27.1,20.8-142.7,21.4-152.9c0.5-8.4,1.3-19.4-3-26.9c-3.7-6.7-10-11.8-17.3-14.1l-246.9-79c-3.1-1-6.2-1.5-9.3-1.5c-10.9,0-21.2,5.8-26.7,15.7c-31.4,56.6-62.7,113.8-88.9,173C78,473.2,64.9,506.3,63,541.9c-1.7,29.8,3.7,60,15.4,87.4C96,670.5,127.5,704.9,167.2,725.7z M222.6,319.7l199,63.7c-9.8,82.7-19.7,145.2-28.9,183.5l-95.5-30.5l-62-19.8l-95.5-30.5C154.4,449.3,182.6,392.8,222.6,319.7z"/><g><path d="M916.8,893.5l-26.5,8.5l-48-147.4c-10,4.9-20.4,9.2-31.3,12.7c-10,3.2-20.2,5.7-30.5,7.5l47.9,147l-26.2,8.4c-16.1,5.1-24.9,22.3-19.8,38.5l0,0c5.1,16.1,22.3,24.9,38.5,19.8l114.8-36.8c16.1-5.1,24.9-22.3,19.8-38.5l0,0C950.1,897.2,932.9,888.4,916.8,893.5z"/><path d="M515.2,355.5c-0.7,3.1-0.9,6.4-0.5,9.8c0.1,1.2,15.4,132,28.5,195.1c7,34,15.8,67.9,34.7,97.4c15.9,24.9,37.5,46.1,62.7,61.4c30.4,18.6,65.8,28.6,101.5,28.6c20.2,0,40.5-3.2,59.7-9.3c10.9-3.5,21.2-7.8,31-13c52.9-27.6,90.7-79.6,101.4-138.2c11.3-62.4-13.8-120.8-40.2-175.8c-23.4-48.8-49.2-96.3-75.4-143.6c-5.5-9.9-15.8-15.7-26.7-15.7c-3.1,0-6.2,0.5-9.3,1.5l-246.9,79C525.1,336.2,517.5,345,515.2,355.5z M777.4,319.7c40.1,73.1,68.3,129.6,83,166.1l-95.5,30.5l-62,19.8l-95.5,30.5c-9.2-38.3-19.1-100.6-28.9-183.5L777.4,319.7z"/></g></g></g><g></g><g></g><g></g><g></g><g></g><g></g><g></g><g></g><g></g><g></g><g></g><g></g><g></g><g></g><g></g></g>
</svg>