<?xml version="1.0" encoding="utf-8"?>
<!-- Svg Vector Icons : http://www.onlinewebfonts.com/icon -->
<!DOCTYPE svg PUBLIC "-//W3C//DTD SVG 1.1//EN" "http://www.w3.org/Graphics/SVG/1.1/DTD/svg11.dtd">
<svg fill="#ffffff" version="1.1" xmlns="http://www.w3.org/2000/svg" xmlns:xlink="http://www.w3.org/1999/xlink" x="0px" y="0px" viewBox="0 0 1000 1000" enable-background="new 0 0 1000 1000" xml:space="preserve">
<metadata> Svg Vector Icons : http://www.onlinewebfonts.com/icon </metadata>
<g><g transform="translate(0.000000,511.000000) scale(0.100000,-0.100000)"><path d="M7430.1,4564.8l-1324.3-442.4l-174.7-524.3l-174.8-524.3H4268.1c-1403.5,0-1485.4-2.7-1471.8-46.4c46.4-150.2,98.3-641.7,98.3-953c0-420.5-54.6-674.4-273.1-1275.1c-191.1-527-245.7-753.6-264.9-1097.7c-51.9-1056.7,527-2020.6,1496.3-2484.8c142-65.5,352.2-144.7,469.6-169.3l210.3-49.1v-456v-453.3l-647.1-215.7L3236-4344.9l-8.2-221.2l-8.2-223.9h1750.3h1750.3l-8.2,223.9l-8.2,221.2l-647.1,218.4l-649.9,215.7v453.3v456l213,49.1c756.4,172,1477.2,802.8,1777.6,1550.9c144.7,360.4,177.5,543.4,177.5,980.3c2.7,456-24.6,573.4-264.9,1242.4c-243,674.4-251.2,718.1-248.5,1310.7c2.7,338.6,16.4,592.5,43.7,731.8l40.9,210.3H6682c-357.7,0-458.8,8.2-447.8,35.5c5.5,16.4,57.3,174.8,114.7,349.5l103.8,314l1253.3,417.8c688.1,229.4,1250.6,428.7,1250.6,442.4s-27.3,103.8-57.3,202.1c-41,122.9-73.7,177.5-103.8,174.8C8770.8,5009.9,8156.5,4807.8,7430.1,4564.8z M5450.5,2153.8c-8.2-27.3-106.5-319.5-215.7-649.9l-202.1-600.7l-723.6-8.2l-726.3-5.5l81.9,292.2c62.8,229.4,84.6,374.1,95.6,658.1l16.4,360.4h843.7C5412.3,2200.2,5464.1,2197.4,5450.5,2153.8z M6179.5,1839.7c10.9-286.7,30-426,95.6-655.3l81.9-294.9h-431.4h-431.4l218.4,655.3l218.4,655.3h117.4h114.7L6179.5,1839.7z"/><path d="M2403.2,4780.5c-824.6-185.7-1403.5-955.7-1357.1-1804.9c38.2-685.4,480.6-1283.4,1125-1526.4c95.6-38.2,180.2-57.3,188.4-46.4c46.4,76.5,98.3,393.2,98.3,608.9v256.7l-136.5,73.7c-464.2,256.7-540.6,955.7-150.2,1346.2c174.8,177.5,341.3,243,614.4,243c199.3,2.7,251.2-8.2,368.6-71c144.7-73.7,234.8-150.2,333.1-275.8l57.3-73.7l466.9,5.5l464.2,8.2l-71,177.5c-199.3,497-573.4,854.7-1078.6,1029.4C3074.9,4818.8,2668.1,4840.6,2403.2,4780.5z"/></g></g>
</svg>